<svg width="144" height="42" viewBox="0 0 144 42" fill="none" xmlns="http://www.w3.org/2000/svg">
<path d="M29.5232 25.1249C29.5232 27.2399 27.8409 28.9524 25.7678 28.9524C25.3315 28.9524 24.979 28.5922 24.979 28.1509V11.3472C24.979 10.9023 25.3315 10.5457 25.7678 10.5457H28.7344C29.1707 10.5457 29.5232 10.9059 29.5232 11.3472V25.1249ZM21.1643 28.9524H18.1977C17.7614 28.9524 17.4089 28.5922 17.4089 28.1509V15.948C17.4089 15.5031 17.7614 15.1465 18.1977 15.1465H21.1643C21.6006 15.1465 21.9531 15.5066 21.9531 15.948V28.1509C21.9531 28.5922 21.6006 28.9524 21.1643 28.9524ZM13.5976 28.9524H10.631C10.1947 28.9524 9.84219 28.5922 9.84219 28.1509V13.66C9.84219 13.2151 10.1947 12.8585 10.631 12.8585H13.5976C14.0339 12.8585 14.3864 13.2186 14.3864 13.66V28.1509C14.3829 28.5922 14.0304 28.9524 13.5976 28.9524ZM24.979 0.507324H14.3829C6.43931 0.507324 0 7.0713 0 15.1677V38.1751C0 38.62 0.352508 38.9766 0.788776 38.9766H24.979C32.9226 38.9766 39.3619 32.4127 39.3619 24.3163V15.1677C39.3619 7.07483 32.9226 0.507324 24.979 0.507324Z" fill="#2F2F33"/>
<path d="M71.688 12.835H68.2781C67.8035 12.835 67.5208 13.0292 67.3951 13.5094L65.0846 22.2943L62.4077 13.5094C62.282 13.061 61.9714 12.8385 61.5317 12.835H59.0606C58.6243 12.8385 58.3102 13.061 58.1846 13.5094L55.5077 22.2943L53.1971 13.5094C53.0715 13.0257 52.7854 12.835 52.3142 12.835H48.9043C48.3354 12.835 48.0841 13.1881 48.2412 13.7354L52.7853 28.2475C52.911 28.6994 53.26 28.9218 53.6998 28.9218H56.7292C57.1725 28.9218 57.5179 28.6959 57.6436 28.2475L60.2891 19.7944L62.9347 28.2475C63.0604 28.6994 63.4093 28.9218 63.8491 28.9218H66.8786C67.3218 28.9218 67.6673 28.6959 67.793 28.2475L72.3371 13.7354C72.5117 13.1881 72.2569 12.835 71.688 12.835Z" fill="#2F2F33"/>
<path d="M88.5766 12.8337H85.4215C84.9154 12.8337 84.6327 13.1232 84.6327 13.6387V14.3555C83.3379 13.1268 81.6766 12.3853 79.8582 12.3853C75.7399 12.3853 72.4033 16.1845 72.4033 20.8736C72.4033 25.5626 75.7399 29.3619 79.8582 29.3619C81.6766 29.3619 83.3379 28.6204 84.6327 27.3916V28.1084C84.6327 28.6239 84.9154 28.9135 85.4215 28.9135H88.5766C89.0827 28.9135 89.3654 28.6239 89.3654 28.1084V13.6387C89.3654 13.1232 89.0792 12.8337 88.5766 12.8337ZM80.8495 24.8388C78.7589 24.8388 77.0661 23.0628 77.0661 20.8701C77.0661 18.6774 78.7589 16.9013 80.8495 16.9013C82.9366 16.9013 84.6327 18.6774 84.6327 20.8701C84.6327 23.0628 82.9401 24.8388 80.8495 24.8388Z" fill="#2F2F33"/>
<path d="M144 18.72V28.1157C144 28.6312 143.717 28.9208 143.211 28.9208H140.056C139.554 28.9208 139.268 28.6312 139.268 28.1157V19.1366C139.268 17.5265 138.353 16.8203 137.152 16.8203C135.732 16.8203 134.849 17.6254 134.849 19.525V28.1157C134.849 28.6312 134.566 28.9208 134.06 28.9208H130.905C130.399 28.9208 130.116 28.6312 130.116 28.1157V13.6354C130.116 13.1199 130.403 12.8304 130.905 12.8304H134.06C134.566 12.8304 134.849 13.1199 134.849 13.6354V14.2993C135.592 13.18 136.936 12.3784 138.953 12.3784C141.885 12.3819 144 14.6983 144 18.72Z" fill="#2F2F33"/>
<path d="M120.547 12.3818C115.559 12.3818 112.086 16.0823 112.086 20.8772C112.086 25.6722 115.43 29.3726 120.672 29.3726C123.89 29.3726 126.48 27.925 127.712 25.1249C127.967 24.6094 127.649 24.2564 127.08 24.2564H124.051C123.639 24.2564 123.388 24.4152 123.073 24.673C122.504 25.1567 121.621 25.478 120.738 25.478C119.095 25.478 117.622 24.7189 117.046 22.8086H127.586C128.061 22.8086 128.375 22.5827 128.438 22.0707C128.469 21.6859 128.5 21.2974 128.5 20.8808C128.5 16.0187 125.154 12.3818 120.547 12.3818ZM117.025 19.1401C117.514 17.537 118.742 16.6613 120.515 16.6613C121.908 16.6613 123.3 17.3075 123.789 19.1401H117.025Z" fill="#2F2F33"/>
<path d="M110.32 12.5761C110.857 12.4808 111.14 12.8338 111.14 13.3494V17.1451C111.14 17.6606 110.92 17.9184 110.508 17.9184C108.739 17.8549 107.036 18.7552 107.036 21.3293V28.1192C107.036 28.6347 106.753 28.9243 106.247 28.9243H103.092C102.586 28.9243 102.303 28.6347 102.303 28.1192V13.6389C102.303 13.1234 102.586 12.8339 103.092 12.8339H106.247C106.753 12.8339 107.036 13.1234 107.036 13.6389V15.3796C107.507 13.7625 108.753 12.8162 110.32 12.5761Z" fill="#2F2F33"/>
<path d="M99.4307 12.5761C99.9682 12.4808 100.251 12.8338 100.251 13.3494V17.1451C100.251 17.6606 100.031 17.9184 99.6191 17.9184C97.8496 17.8549 96.1465 18.7552 96.1465 21.3293V28.1192C96.1465 28.6347 95.8638 28.9243 95.3577 28.9243H92.2026C91.6965 28.9243 91.4138 28.6347 91.4138 28.1192V13.6389C91.4138 13.1234 91.6965 12.8339 92.2026 12.8339H95.3577C95.8638 12.8339 96.1465 13.1234 96.1465 13.6389V15.3796C96.6211 13.7625 97.8637 12.8162 99.4307 12.5761Z" fill="#2F2F33"/>
<path d="M84.2169 34.7005H85.317V41.3969H84.2169V34.7005Z" fill="#2F2F33"/>
<path d="M86.567 36.6137H87.6289V41.3969H86.567V36.6137ZM89.8674 38.5461C89.8674 38.1443 89.7782 37.8542 89.5996 37.6756C89.4274 37.497 89.1627 37.4077 88.8056 37.4077C88.4739 37.4077 88.1869 37.513 87.9446 37.7234C87.7023 37.9275 87.5173 38.2432 87.3897 38.6705L87.1028 38.3357C87.192 38.0104 87.3292 37.7107 87.5141 37.4364C87.7054 37.1622 87.9446 36.9422 88.2316 36.7764C88.525 36.6042 88.8534 36.5181 89.2169 36.5181C89.7654 36.5181 90.1863 36.6711 90.4797 36.9772C90.7794 37.277 90.9293 37.6852 90.9293 38.2017V41.3969H89.8674V38.5461Z" fill="#2F2F33"/>
<path d="M91.4901 36.6137H92.6093L93.9773 40.5072H93.7286L95.0009 36.6137H96.0436L94.36 41.3969H93.279L91.4901 36.6137Z" fill="#2F2F33"/>
<path d="M98.8121 41.4926C98.3211 41.4926 97.881 41.3905 97.492 41.1864C97.1093 40.9824 96.8064 40.6954 96.5832 40.3255C96.3663 39.9492 96.2579 39.5123 96.2579 39.0149C96.2579 38.5238 96.3663 38.0901 96.5832 37.7139C96.8 37.3312 97.0966 37.0378 97.4728 36.8338C97.8491 36.6233 98.2541 36.5181 98.6878 36.5181C99.1151 36.5181 99.4945 36.6042 99.8262 36.7764C100.158 36.9422 100.416 37.1877 100.601 37.513C100.792 37.8318 100.888 38.2113 100.888 38.6514C100.888 38.8682 100.878 39.0723 100.859 39.2636H97.2815V38.4792H100.228L99.9027 38.9575C99.9346 38.46 99.8357 38.071 99.6061 37.7904C99.3829 37.5098 99.0704 37.3695 98.6686 37.3695C98.4008 37.3695 98.1648 37.4364 97.9607 37.5704C97.763 37.6979 97.61 37.8829 97.5015 38.1252C97.3931 38.3676 97.3389 38.6609 97.3389 39.0053C97.3389 39.3433 97.4059 39.6303 97.5398 39.8663C97.6737 40.0959 97.8587 40.2713 98.0947 40.3924C98.3306 40.5072 98.6017 40.5646 98.9078 40.5646C99.2012 40.5646 99.469 40.52 99.7114 40.4307C99.9537 40.3414 100.193 40.1884 100.429 39.9715L100.783 40.8038C100.515 41.027 100.212 41.1992 99.874 41.3204C99.536 41.4352 99.182 41.4926 98.8121 41.4926Z" fill="#2F2F33"/>
<path d="M103.352 41.4926C103.001 41.4926 102.669 41.4607 102.357 41.3969C102.044 41.3331 101.783 41.2438 101.572 41.129L101.783 40.1628C101.968 40.3032 102.21 40.4148 102.51 40.4977C102.809 40.5806 103.103 40.622 103.39 40.622C103.709 40.622 103.951 40.571 104.117 40.469C104.289 40.3606 104.375 40.2075 104.375 40.0098C104.375 39.8759 104.337 39.7738 104.26 39.7037C104.19 39.6271 104.082 39.5697 103.935 39.5315C103.788 39.4868 103.575 39.4422 103.294 39.3975C102.963 39.3529 102.679 39.2859 102.443 39.1966C102.213 39.101 102.025 38.9575 101.878 38.7662C101.738 38.5748 101.668 38.3197 101.668 38.0008C101.668 37.7202 101.738 37.4683 101.878 37.2451C102.025 37.0219 102.242 36.8465 102.529 36.719C102.822 36.585 103.179 36.5181 103.6 36.5181C103.887 36.5181 104.181 36.5468 104.48 36.6042C104.78 36.6552 105.029 36.7285 105.227 36.8242L105.007 37.7234C104.751 37.6086 104.503 37.5225 104.26 37.4651C104.018 37.4014 103.773 37.3695 103.524 37.3695C103.256 37.3695 103.045 37.4173 102.892 37.513C102.739 37.6023 102.663 37.7298 102.663 37.8956C102.663 38.0678 102.727 38.189 102.854 38.2591C102.982 38.3293 103.211 38.3931 103.543 38.4505L103.725 38.4792C104.107 38.5366 104.417 38.6163 104.653 38.7183C104.889 38.8204 105.067 38.9639 105.188 39.1488C105.316 39.3338 105.38 39.5761 105.38 39.8759C105.38 40.1884 105.3 40.4658 105.14 40.7081C104.981 40.9505 104.748 41.1418 104.442 41.2821C104.136 41.4224 103.773 41.4926 103.352 41.4926Z" fill="#2F2F33"/>
<path d="M108.366 41.4926C107.862 41.4926 107.46 41.3778 107.161 41.1482C106.861 40.9122 106.711 40.5264 106.711 39.9907V35.1309H107.773V39.828C107.773 40.0959 107.833 40.284 107.955 40.3924C108.076 40.4945 108.274 40.5455 108.548 40.5455C108.739 40.5455 108.953 40.5136 109.189 40.4498L109.17 41.3395C109.068 41.3905 108.946 41.4288 108.806 41.4543C108.666 41.4798 108.519 41.4926 108.366 41.4926ZM105.802 36.6137H109.141V37.5034H105.802V36.6137Z" fill="#2F2F33"/>
<path d="M110.053 36.6137H111.115V41.3969H110.053V36.6137ZM110.589 35.7241C110.353 35.7241 110.178 35.6667 110.063 35.5519C109.948 35.4307 109.891 35.2649 109.891 35.0544C109.891 34.8376 109.948 34.6718 110.063 34.557C110.178 34.4422 110.353 34.3848 110.589 34.3848C110.825 34.3848 111 34.4422 111.115 34.557C111.23 34.6718 111.287 34.8376 111.287 35.0544C111.287 35.2649 111.23 35.4307 111.115 35.5519C111 35.6667 110.825 35.7241 110.589 35.7241Z" fill="#2F2F33"/>
<path d="M112.295 36.6137H113.357V41.3969H112.295V36.6137ZM115.357 38.4409C115.357 38.0774 115.277 37.8159 115.117 37.6565C114.958 37.4906 114.725 37.4077 114.419 37.4077C114.1 37.4077 113.826 37.513 113.596 37.7234C113.373 37.9339 113.204 38.2432 113.089 38.6514L112.831 38.2974C112.908 37.9849 113.035 37.6947 113.214 37.4269C113.392 37.1526 113.619 36.9326 113.893 36.7668C114.167 36.601 114.473 36.5181 114.811 36.5181C115.143 36.5181 115.43 36.585 115.672 36.719C115.915 36.8465 116.1 37.0315 116.227 37.2738C116.355 37.5162 116.418 37.8031 116.418 38.1348V41.3969H115.357V38.4409ZM118.274 38.4409C118.274 38.0774 118.195 37.8159 118.035 37.6565C117.876 37.4906 117.643 37.4077 117.337 37.4077C117.018 37.4077 116.744 37.513 116.514 37.7234C116.291 37.9339 116.122 38.2432 116.007 38.6514L115.758 38.2974C115.828 37.9849 115.953 37.6947 116.131 37.4269C116.31 37.1526 116.536 36.9326 116.811 36.7668C117.085 36.601 117.394 36.5181 117.739 36.5181C118.064 36.5181 118.348 36.585 118.59 36.719C118.832 36.8465 119.017 37.0315 119.145 37.2738C119.272 37.5162 119.336 37.8031 119.336 38.1348V41.3969H118.274V38.4409Z" fill="#2F2F33"/>
<path d="M122.7 41.4926C122.209 41.4926 121.769 41.3905 121.38 41.1864C120.997 40.9824 120.694 40.6954 120.471 40.3255C120.254 39.9492 120.146 39.5123 120.146 39.0149C120.146 38.5238 120.254 38.0901 120.471 37.7139C120.688 37.3312 120.984 37.0378 121.361 36.8338C121.737 36.6233 122.142 36.5181 122.576 36.5181C123.003 36.5181 123.382 36.6042 123.714 36.7764C124.046 36.9422 124.304 37.1877 124.489 37.513C124.68 37.8318 124.776 38.2113 124.776 38.6514C124.776 38.8682 124.766 39.0723 124.747 39.2636H121.169V38.4792H124.116L123.791 38.9575C123.822 38.46 123.724 38.071 123.494 37.7904C123.271 37.5098 122.958 37.3695 122.556 37.3695C122.289 37.3695 122.053 37.4364 121.849 37.5704C121.651 37.6979 121.498 37.8829 121.389 38.1252C121.281 38.3676 121.227 38.6609 121.227 39.0053C121.227 39.3433 121.294 39.6303 121.428 39.8663C121.562 40.0959 121.747 40.2713 121.983 40.3924C122.218 40.5072 122.49 40.5646 122.796 40.5646C123.089 40.5646 123.357 40.52 123.599 40.4307C123.842 40.3414 124.081 40.1884 124.317 39.9715L124.671 40.8038C124.403 41.027 124.1 41.1992 123.762 41.3204C123.424 41.4352 123.07 41.4926 122.7 41.4926Z" fill="#2F2F33"/>
<path d="M125.599 36.6137H126.66V41.3969H125.599V36.6137ZM128.899 38.5461C128.899 38.1443 128.81 37.8542 128.631 37.6756C128.459 37.497 128.194 37.4077 127.837 37.4077C127.505 37.4077 127.218 37.513 126.976 37.7234C126.734 37.9275 126.549 38.2432 126.421 38.6705L126.134 38.3357C126.224 38.0104 126.361 37.7107 126.546 37.4364C126.737 37.1622 126.976 36.9422 127.263 36.7764C127.556 36.6042 127.885 36.5181 128.248 36.5181C128.797 36.5181 129.218 36.6711 129.511 36.9772C129.811 37.277 129.961 37.6852 129.961 38.2017V41.3969H128.899V38.5461Z" fill="#2F2F33"/>
<path d="M133.216 41.4926C132.712 41.4926 132.31 41.3778 132.011 41.1482C131.711 40.9122 131.561 40.5264 131.561 39.9907V35.1309H132.623V39.828C132.623 40.0959 132.684 40.284 132.805 40.3924C132.926 40.4945 133.124 40.5455 133.398 40.5455C133.589 40.5455 133.803 40.5136 134.039 40.4498L134.02 41.3395C133.918 41.3905 133.796 41.4288 133.656 41.4543C133.516 41.4798 133.369 41.4926 133.216 41.4926ZM130.652 36.6137H133.991V37.5034H130.652V36.6137Z" fill="#2F2F33"/>
<path d="M137.058 41.4926C136.593 41.4926 136.169 41.3937 135.786 41.196C135.403 40.9919 135.097 40.7018 134.868 40.3255C134.644 39.9492 134.533 39.5091 134.533 39.0053C134.533 38.5015 134.644 38.0614 134.868 37.6852C135.097 37.3089 135.403 37.0219 135.786 36.8242C136.169 36.6201 136.593 36.5181 137.058 36.5181C137.511 36.5181 137.929 36.6201 138.311 36.8242C138.7 37.0219 139.007 37.3089 139.23 37.6852C139.459 38.0614 139.574 38.5015 139.574 39.0053C139.574 39.5028 139.459 39.9428 139.23 40.3255C139.007 40.7018 138.7 40.9919 138.311 41.196C137.929 41.3937 137.511 41.4926 137.058 41.4926ZM137.058 40.5646C137.332 40.5646 137.578 40.5009 137.795 40.3733C138.012 40.2458 138.177 40.064 138.292 39.828C138.413 39.5857 138.474 39.3114 138.474 39.0053C138.474 38.6928 138.413 38.4186 138.292 38.1826C138.177 37.9466 138.012 37.7649 137.795 37.6373C137.578 37.5098 137.332 37.446 137.058 37.446C136.771 37.446 136.519 37.5098 136.302 37.6373C136.092 37.7649 135.926 37.9466 135.805 38.1826C135.69 38.4186 135.633 38.6928 135.633 39.0053C135.633 39.3178 135.69 39.5921 135.805 39.828C135.926 40.064 136.092 40.2458 136.302 40.3733C136.519 40.5009 136.771 40.5646 137.058 40.5646Z" fill="#2F2F33"/>
<path d="M141.925 41.4926C141.575 41.4926 141.243 41.4607 140.93 41.3969C140.618 41.3331 140.356 41.2438 140.146 41.129L140.356 40.1628C140.541 40.3032 140.784 40.4148 141.083 40.4977C141.383 40.5806 141.677 40.622 141.964 40.622C142.282 40.622 142.525 40.571 142.691 40.469C142.863 40.3606 142.949 40.2075 142.949 40.0098C142.949 39.8759 142.911 39.7738 142.834 39.7037C142.764 39.6271 142.656 39.5697 142.509 39.5315C142.362 39.4868 142.149 39.4422 141.868 39.3975C141.536 39.3529 141.252 39.2859 141.017 39.1966C140.787 39.101 140.599 38.9575 140.452 38.7662C140.312 38.5748 140.242 38.3197 140.242 38.0008C140.242 37.7202 140.312 37.4683 140.452 37.2451C140.599 37.0219 140.816 36.8465 141.103 36.719C141.396 36.585 141.753 36.5181 142.174 36.5181C142.461 36.5181 142.754 36.5468 143.054 36.6042C143.354 36.6552 143.603 36.7285 143.8 36.8242L143.58 37.7234C143.325 37.6086 143.076 37.5225 142.834 37.4651C142.592 37.4014 142.346 37.3695 142.097 37.3695C141.83 37.3695 141.619 37.4173 141.466 37.513C141.313 37.6023 141.237 37.7298 141.237 37.8956C141.237 38.0678 141.3 38.189 141.428 38.2591C141.555 38.3293 141.785 38.3931 142.117 38.4505L142.298 38.4792C142.681 38.5366 142.99 38.6163 143.226 38.7183C143.462 38.8204 143.641 38.9639 143.762 39.1488C143.89 39.3338 143.953 39.5761 143.953 39.8759C143.953 40.1884 143.874 40.4658 143.714 40.7081C143.555 40.9505 143.322 41.1418 143.016 41.2821C142.71 41.4224 142.346 41.4926 141.925 41.4926Z" fill="#2F2F33"/>
</svg>
